<?xml version="1.0" encoding="UTF-8" standalone="no"?>
<svg
   xmlns:dc="http://purl.org/dc/elements/1.1/"
   xmlns:cc="http://creativecommons.org/ns#"
   xmlns:rdf="http://www.w3.org/1999/02/22-rdf-syntax-ns#"
   xmlns:svg="http://www.w3.org/2000/svg"
   xmlns="http://www.w3.org/2000/svg"
   xmlns:sodipodi="http://sodipodi.sourceforge.net/DTD/sodipodi-0.dtd"
   xmlns:inkscape="http://www.inkscape.org/namespaces/inkscape"
   sodipodi:docname="box-desktop.svg"
   inkscape:version="1.0 (4035a4fb49, 2020-05-01)"
   id="svg221"
   version="1.1"
   viewBox="0 0 23.642111 27.956146"
   height="27.956146mm"
   width="23.642111mm">
  <defs
     id="defs215" />
  <sodipodi:namedview
     inkscape:window-maximized="0"
     inkscape:window-y="0"
     inkscape:window-x="1920"
     inkscape:window-height="1199"
     inkscape:window-width="1421"
     showgrid="false"
     inkscape:document-rotation="0"
     inkscape:current-layer="layer1"
     inkscape:document-units="mm"
     inkscape:cy="255.68766"
     inkscape:cx="1.8208756"
     inkscape:zoom="0.35"
     inkscape:pageshadow="2"
     inkscape:pageopacity="0.0"
     borderopacity="1.0"
     bordercolor="#666666"
     pagecolor="#ffffff"
     id="base" />
  <metadata
     id="metadata218">
    <rdf:RDF>
      <cc:Work
         rdf:about="">
        <dc:format>image/svg+xml</dc:format>
        <dc:type
           rdf:resource="http://purl.org/dc/dcmitype/StillImage" />
        <dc:title></dc:title>
      </cc:Work>
    </rdf:RDF>
  </metadata>
  <g
     transform="translate(-105.35156,-80.515974)"
     id="layer1"
     inkscape:groupmode="layer"
     inkscape:label="Layer 1">
    <path
       d="m 105.35183,87.902494 v 14.223556 l 11.10403,6.34607 12.53781,-7.39957 V 86.849004"
       id="use14"
       style="fill:#ff9271;fill-rule:evenodd;stroke-width:0.264308" />
    <path
       style="stroke-width:0.264583"
       fill="#df5c34"
       fill-rule="nonzero"
       d="m 116.45586,94.219014 v 14.253106 l 12.53781,-7.41521 V 86.803804 Z"
       id="path18" />
    <path
       style="stroke-width:0.264583"
       fill="#f47b56"
       fill-rule="nonzero"
       d="m 105.35156,87.859224 12.88362,-7.34325 10.75849,6.28836 -12.53781,7.41494 z"
       id="path20" />
    <a
       id="a235">
      <path
         id="path22"
         fill-rule="nonzero"
         fill="#3e2928"
         d="m 116.75061,83.787284 a 6.8638208,6.8638208 0 0 1 3.75893,0.82788 c 0.65775,0.38682 1.01706,0.79058 1.06786,1.21153 0.0508,0.42069 -0.16616,0.78714 -0.67786,1.09617 a 2.4116771,2.4116771 0 0 1 -0.78978,0.31221 c -0.22993,0.0542 -0.46567,0.0781 -0.70168,0.0712 l -0.2577,-0.0204 c 0.0241,0.0574 0.04,0.118 0.0476,0.17991 a 0.828675,0.828675 0 0 1 -0.13574,0.41064 1.5091834,1.5091834 0 0 1 -0.55563,0.54636 3.3424812,3.3424812 0 0 1 -1.7727,0.46831 3.5049354,3.5049354 0 0 1 -1.84071,-0.46487 c -0.5289,-0.31221 -0.79983,-0.67892 -0.82021,-1.09961 a 1.1879792,1.1879792 0 0 1 0.67786,-1.0623 2.2457834,2.2457834 0 0 1 0.62363,-0.26802 2.4275521,2.4275521 0 0 1 0.53895,-0.0915 h 0.18653 l -0.33919,-0.20373 0.9525,-0.59372 2.20662,1.29963 a 1.1580813,1.1580813 0 0 0 1.09802,0 c 0.46805,-0.29183 0.30084,-0.67522 -0.50138,-1.15041 a 5.0961396,5.0961396 0 0 0 -2.79294,-0.62097 5.7335208,5.7335208 0 0 0 -2.91518,0.8382 c -0.79984,0.50006 -1.19645,1.09616 -1.18957,1.78858 0,0.67839 0.4236,1.2827 1.24725,1.76795 a 5.5602187,5.5602187 0 0 0 2.94904,0.70246 5.5366708,5.5366708 0 0 0 2.91492,-0.7739 3.2683979,3.2683979 0 0 0 0.81015,-0.67866 1.5036271,1.5036271 0 0 0 0.33867,-0.57679 l 0.0476,-0.21378 1.25756,0.0712 c 0.002,0.0384 0.002,0.0767 0,0.11536 a 2.1738167,2.1738167 0 0 1 -0.0915,0.30533 2.1968354,2.1968354 0 0 1 -0.21695,0.45508 3.1517167,3.1517167 0 0 1 -0.44715,0.52917 4.2206333,4.2206333 0 0 1 -0.72893,0.56356 6.7738625,6.7738625 0 0 1 -2.4675,0.889 9.3069833,9.3069833 0 0 1 -2.87787,0.0508 6.5870667,6.5870667 0 0 1 -2.47095,-0.80777 3.2086021,3.2086021 0 0 1 -1.40335,-1.47267 2.1674667,2.1674667 0 0 1 0,-1.7444 3.3580917,3.3580917 0 0 1 1.3933,-1.52374 7.6639208,7.6639208 0 0 1 3.87747,-1.13347 z m 1.23375,3.50891 c -0.045,-0.23575 -0.20373,-0.43392 -0.4236,-0.52944 a 1.7406938,1.7406938 0 0 0 -0.88106,-0.24103 1.4866938,1.4866938 0 0 0 -0.82048,0.21034 0.60404375,0.60404375 0 0 0 -0.33893,0.52943 c 0.031,0.23548 0.18257,0.43763 0.40005,0.53288 a 1.730375,1.730375 0 0 0 0.898,0.22754 1.6118417,1.6118417 0 0 0 0.86095,-0.22411 0.54636458,0.54636458 0 0 0 0.31883,-0.50561"
         style="stroke-width:0.264583" />
    </a>
  </g>
</svg>
